<?xml version="1.0" encoding="UTF-8" standalone="no"?>
<!-- Created with Inkscape (http://www.inkscape.org/) -->

<svg
   width="36.364189mm"
   height="9.7136192mm"
   viewBox="0 0 36.364189 9.7136192"
   version="1.1"
   id="svg1"
   xmlns:inkscape="http://www.inkscape.org/namespaces/inkscape"
   xmlns:sodipodi="http://sodipodi.sourceforge.net/DTD/sodipodi-0.dtd"
   xmlns:xlink="http://www.w3.org/1999/xlink"
   xmlns="http://www.w3.org/2000/svg"
   xmlns:svg="http://www.w3.org/2000/svg">
  <sodipodi:namedview
     id="namedview1"
     pagecolor="#ffffff"
     bordercolor="#666666"
     borderopacity="1.0"
     inkscape:showpageshadow="2"
     inkscape:pageopacity="0.0"
     inkscape:pagecheckerboard="0"
     inkscape:deskcolor="#d1d1d1"
     inkscape:document-units="mm" />
  <defs
     id="defs1">
    <linearGradient
       id="linearGradient12"
       inkscape:collect="always">
      <stop
         style="stop-color:#b21144;stop-opacity:1;"
         offset="0"
         id="stop12" />
      <stop
         style="stop-color:#e40830;stop-opacity:1;"
         offset="0.75"
         id="stop13" />
    </linearGradient>
    <linearGradient
       inkscape:collect="always"
       xlink:href="#linearGradient12"
       id="linearGradient13"
       x1="21.480343"
       y1="82.423546"
       x2="21.480343"
       y2="73.273666"
       gradientUnits="userSpaceOnUse" />
  </defs>
  <g
     inkscape:label="Warstwa 1"
     inkscape:groupmode="layer"
     id="layer1"
     transform="translate(-21.480343,-75.155622)">
    <path
       id="text1-3"
       style="font-style:normal;font-weight:normal;font-size:10.5833px;line-height:0.7;font-family:sans-serif;letter-spacing:0.309563px;word-spacing:0.00529167px;fill:url(#linearGradient13);fill-opacity:1;stroke:none;stroke-width:0.264583"
       d="m 22.243604,75.155619 v 7.027478 h 1.470711 v -2.963643 h 3.090767 V 77.981287 H 23.714315 V 76.383451 H 27.2495 v -1.227832 z m 6.675044,0 -2.545581,7.027478 h 1.578715 l 0.504879,-1.45004 h 2.631881 l 0.451135,1.45004 h 1.621606 l -2.513541,-7.027478 z m 4.62194,0 v 7.027478 h 1.428854 v -2.75177 h 1.566312 c 0.423332,0 0.712426,0.07404 0.867648,0.222209 0.155221,0.14111 0.23306,0.381187 0.23306,0.719853 v 1.809708 h 1.439189 v -1.990059 c 0,-0.409221 -0.06697,-0.715747 -0.201021,-0.920357 -0.127,-0.204611 -0.345848,-0.356492 -0.656291,-0.45527 0.338665,-0.119944 0.596175,-0.324639 0.772563,-0.613916 0.183443,-0.296332 0.275435,-0.63496 0.275435,-1.015958 0,-0.289277 -0.05281,-0.557142 -0.158647,-0.804086 -0.09878,-0.253999 -0.243582,-0.469567 -0.434082,-0.645955 -0.190499,-0.183444 -0.419703,-0.324453 -0.687813,-0.42323 -0.261054,-0.105833 -0.553945,-0.158647 -0.878499,-0.158647 z m 6.122107,0 v 7.027478 h 5.333525 v -1.249019 h -3.905188 v -1.809709 h 3.439583 v -1.238167 h -3.439583 v -1.502751 h 3.736206 v -1.227832 z m 5.828585,0 v 7.027478 h 1.526005 v -2.550748 h 1.690853 c 0.358692,0 0.68086,-0.05281 0.966349,-0.158647 0.28549,-0.112888 0.530906,-0.26477 0.735873,-0.455269 0.204966,-0.197555 0.362002,-0.430039 0.471806,-0.698149 0.109803,-0.275165 0.164847,-0.571853 0.164847,-0.889351 0,-0.317499 -0.05504,-0.61367 -0.164847,-0.888835 C 50.772362,76.266933 50.615326,76.026855 50.41036,75.822245 50.205393,75.61058 49.959977,75.448342 49.674487,75.335453 49.388998,75.21551 49.06683,75.155619 48.708138,75.155619 Z m 8.807731,0 c -0.474912,0 -0.894427,0.08285 -1.258321,0.248047 -0.363894,0.158585 -0.672133,0.392754 -0.925008,0.703316 -0.252875,0.303955 -0.444087,0.677628 -0.573608,1.120345 -0.129522,0.442718 -0.194304,0.941502 -0.194304,1.49655 0,1.116704 0.25286,1.972074 0.75861,2.566768 0.511918,0.594695 1.242807,0.892452 2.192631,0.892452 0.949824,0 1.674445,-0.287608 2.174028,-0.862479 0.50575,-0.574872 0.75861,-1.430758 0.75861,-2.567285 0,-0.561656 -0.06478,-1.063651 -0.194304,-1.506368 -0.129521,-0.449325 -0.317599,-0.82942 -0.564306,-1.139983 -0.246708,-0.310562 -0.554947,-0.544731 -0.925008,-0.703316 -0.363894,-0.165193 -0.780275,-0.248047 -1.24902,-0.248047 z m -19.329569,1.21698 H 36.8639 c 0.366887,0 0.627676,0.0882 0.782898,0.264584 0.162277,0.176388 0.243396,0.402312 0.243396,0.677478 0,0.26811 -0.08112,0.490237 -0.243396,0.666626 -0.162277,0.176388 -0.441016,0.264583 -0.836125,0.264583 h -1.841231 z m 12.047843,0 h 1.449524 c 0.439215,0 0.753802,0.09527 0.944128,0.285771 0.197647,0.190499 0.296623,0.433856 0.296623,0.730188 0,0.310443 -0.09898,0.564673 -0.296623,0.762227 -0.190326,0.190499 -0.504913,0.285771 -0.944128,0.285771 h -1.449524 z m 7.281726,0.0021 c 0.542757,0 0.956004,0.201544 1.239718,0.604615 0.283714,0.40307 0.425814,0.994341 0.425814,1.774052 0,0.389855 -0.04336,0.727175 -0.129708,1.011307 -0.08635,0.284132 -0.206509,0.518817 -0.360702,0.703833 -0.148024,0.178409 -0.324082,0.313669 -0.527616,0.406177 -0.203534,0.0859 -0.419301,0.128674 -0.647506,0.128674 -0.536589,0 -0.95297,-0.178034 -1.249019,-0.534851 -0.289882,-0.363424 -0.434599,-0.93543 -0.434599,-1.71514 0,-0.779711 0.144717,-1.370982 0.434599,-1.774052 0.289881,-0.403071 0.706263,-0.604615 1.249019,-0.604615 z m -24.542688,0.358118 h 0.01085 l 0.891419,2.793628 h -1.815393 z m -5.021399,6.635771 c -0.08608,0 -0.161431,0.01087 -0.226342,0.03204 -0.0635,0.02117 -0.117486,0.05078 -0.161231,0.08888 -0.04233,0.0381 -0.07392,0.08384 -0.09509,0.137459 -0.02117,0.05221 -0.03152,0.110133 -0.03152,0.173633 0,0.0889 0.0194,0.160974 0.05891,0.216007 0.04092,0.05362 0.0995,0.09739 0.1757,0.131258 0.04939,0.02258 0.104031,0.04132 0.163297,0.05684 0.06068,0.01411 0.13472,0.0314 0.222209,0.05116 0.04374,0.0099 0.07978,0.02089 0.108004,0.03359 0.02822,0.01129 0.05011,0.02479 0.06563,0.04031 0.01693,0.01411 0.02795,0.02958 0.03359,0.04651 0.0071,0.01693 0.01085,0.03619 0.01085,0.05736 0,0.0635 -0.02437,0.112517 -0.07235,0.147795 -0.04657,0.03387 -0.113533,0.05116 -0.201022,0.05116 -0.09454,0 -0.169898,-0.02057 -0.226343,-0.06149 -0.05503,-0.04233 -0.08399,-0.0996 -0.08682,-0.171565 h -0.283704 c 0.0014,0.07902 0.01688,0.148472 0.04651,0.207739 0.02963,0.05785 0.07078,0.106216 0.12299,0.145727 0.05221,0.03951 0.114069,0.06847 0.186035,0.08682 0.07197,0.01976 0.151773,0.02945 0.239262,0.02945 0.08185,0 0.156543,-0.009 0.224276,-0.02739 0.06914,-0.01693 0.128378,-0.04341 0.177767,-0.0801 0.0508,-0.03669 0.08998,-0.08294 0.116789,-0.137976 0.02822,-0.05644 0.04237,-0.12341 0.04237,-0.201021 0,-0.04939 -0.0058,-0.0925 -0.01705,-0.129191 -0.01129,-0.03669 -0.02675,-0.06827 -0.04651,-0.09509 -0.01975,-0.02681 -0.04295,-0.04935 -0.06976,-0.0677 -0.02681,-0.01834 -0.05577,-0.03446 -0.08682,-0.04858 -0.05221,-0.02399 -0.115242,-0.04522 -0.188619,-0.06356 -0.07197,-0.01975 -0.147977,-0.03967 -0.22841,-0.05943 -0.07902,-0.01976 -0.135632,-0.04295 -0.169499,-0.06976 -0.03245,-0.02681 -0.04858,-0.06285 -0.04858,-0.108004 0,-0.05362 0.02123,-0.09425 0.06356,-0.122473 0.04233,-0.02822 0.104847,-0.04237 0.188102,-0.04237 0.0889,0 0.155866,0.01743 0.201022,0.05271 0.04516,0.03528 0.07149,0.08875 0.07855,0.160713 h 0.279569 c -0.0028,-0.06773 -0.01763,-0.12959 -0.04444,-0.186035 -0.0254,-0.05644 -0.06209,-0.105322 -0.110071,-0.146244 -0.04657,-0.04092 -0.104488,-0.07251 -0.173633,-0.09509 -0.06914,-0.02258 -0.148295,-0.03411 -0.237195,-0.03411 z m 14.051856,0 c -0.100189,0 -0.191007,0.01795 -0.272852,0.05323 -0.08043,0.03528 -0.148711,0.08612 -0.205155,0.152446 -0.05645,0.06491 -0.100214,0.145373 -0.131258,0.241329 -0.02963,0.09454 -0.04444,0.200827 -0.04444,0.31936 0,0.121356 0.01612,0.228155 0.04858,0.319877 0.03387,0.09031 0.0796,0.166321 0.137459,0.22841 0.05786,0.06209 0.126133,0.108482 0.205156,0.139526 0.08043,0.03105 0.166659,0.04651 0.258382,0.04651 0.08184,0 0.156542,-0.01232 0.224275,-0.03772 0.06773,-0.0254 0.126967,-0.06144 0.177767,-0.108003 0.05221,-0.04657 0.09532,-0.102521 0.129191,-0.167432 0.03387,-0.06491 0.05889,-0.137641 0.07441,-0.218074 H 39.09374 c -0.01976,0.0889 -0.05645,0.157694 -0.110071,0.205672 -0.05221,0.04657 -0.121801,0.06976 -0.20929,0.06976 -0.1143,0 -0.200526,-0.04311 -0.258382,-0.129191 -0.05644,-0.08749 -0.08475,-0.209753 -0.08475,-0.366386 0,-0.153811 0.02896,-0.274246 0.08682,-0.361735 0.05786,-0.0889 0.148018,-0.133325 0.270785,-0.133325 0.07056,0 0.134241,0.02254 0.190686,0.0677 0.05644,0.04374 0.09445,0.105602 0.114205,0.186035 h 0.294555 c -0.0071,-0.07056 -0.02632,-0.136865 -0.05736,-0.198954 -0.02963,-0.06209 -0.07078,-0.115558 -0.12299,-0.160714 -0.0508,-0.04657 -0.112002,-0.0826 -0.183968,-0.108004 -0.07056,-0.02681 -0.149706,-0.04031 -0.237195,-0.04031 z m 4.692737,0 c -0.08608,0 -0.161432,0.01087 -0.226343,0.03204 -0.0635,0.02117 -0.116969,0.05078 -0.160714,0.08888 -0.04233,0.0381 -0.07444,0.08384 -0.0956,0.137459 -0.02117,0.05221 -0.03152,0.110133 -0.03152,0.173633 0,0.0889 0.01992,0.160974 0.05943,0.216007 0.04092,0.05362 0.0995,0.09739 0.1757,0.131258 0.04939,0.02258 0.103514,0.04132 0.162781,0.05684 0.06068,0.01411 0.134719,0.0314 0.222208,0.05116 0.04375,0.0099 0.07978,0.02089 0.108004,0.03359 0.02822,0.01129 0.05011,0.02479 0.06563,0.04031 0.01693,0.01411 0.02794,0.02958 0.03359,0.04651 0.0071,0.01693 0.01085,0.03619 0.01085,0.05736 0,0.0635 -0.02385,0.112517 -0.07183,0.147795 -0.04657,0.03387 -0.113533,0.05116 -0.201022,0.05116 -0.09454,0 -0.170415,-0.02057 -0.226859,-0.06149 -0.05503,-0.04233 -0.08399,-0.0996 -0.08682,-0.171565 h -0.283703 c 0.0014,0.07902 0.01739,0.148472 0.04702,0.207739 0.02963,0.05785 0.07026,0.106216 0.122473,0.145727 0.05221,0.03951 0.114586,0.06847 0.186552,0.08682 0.07197,0.01976 0.151257,0.02945 0.238745,0.02945 0.08185,0 0.15706,-0.009 0.224793,-0.02739 0.06914,-0.01693 0.128378,-0.04341 0.177767,-0.0801 0.0508,-0.03669 0.08946,-0.08294 0.116272,-0.137976 0.02822,-0.05644 0.04237,-0.12341 0.04237,-0.201021 0,-0.04939 -0.0058,-0.0925 -0.01705,-0.129191 -0.01129,-0.03669 -0.02675,-0.06827 -0.04651,-0.09509 -0.01976,-0.02681 -0.04295,-0.04935 -0.06976,-0.0677 -0.02681,-0.01834 -0.05577,-0.03446 -0.08682,-0.04858 -0.05221,-0.02399 -0.115241,-0.04522 -0.188619,-0.06356 -0.07197,-0.01975 -0.147977,-0.03967 -0.22841,-0.05943 -0.07902,-0.01976 -0.135632,-0.04295 -0.169499,-0.06976 -0.03245,-0.02681 -0.04857,-0.06285 -0.04857,-0.108004 0,-0.05362 0.02123,-0.09425 0.06356,-0.122473 0.04233,-0.02822 0.104846,-0.04237 0.188102,-0.04237 0.0889,0 0.156382,0.01743 0.201538,0.05271 0.04516,0.03528 0.07098,0.08875 0.07803,0.160713 h 0.27957 c -0.0028,-0.06773 -0.01763,-0.12959 -0.04444,-0.186035 -0.0254,-0.05644 -0.06209,-0.105322 -0.110071,-0.146244 -0.04657,-0.04092 -0.104488,-0.07251 -0.173633,-0.09509 -0.06914,-0.02258 -0.148294,-0.03411 -0.237194,-0.03411 z m 6.155696,0 c -0.108655,0 -0.204582,0.01795 -0.287838,0.05323 -0.08326,0.03387 -0.153501,0.08406 -0.211356,0.150379 -0.05786,0.06491 -0.101625,0.1442 -0.131258,0.238745 -0.02963,0.09454 -0.04444,0.201344 -0.04444,0.319877 0,0.238478 0.05792,0.421287 0.173633,0.548287 0.117122,0.127 0.28395,0.190169 0.501261,0.190169 0.217311,0 0.383344,-0.0612 0.497644,-0.183968 0.115711,-0.122767 0.173633,-0.305576 0.173633,-0.548287 0,-0.119944 -0.01481,-0.226883 -0.04444,-0.321427 -0.02963,-0.09596 -0.07275,-0.177074 -0.129191,-0.243396 -0.05644,-0.06632 -0.127206,-0.116512 -0.211873,-0.150379 -0.08326,-0.03528 -0.178526,-0.05323 -0.285771,-0.05323 z m 1.564763,0 c -0.08608,0 -0.161432,0.01087 -0.226343,0.03204 -0.0635,0.02117 -0.116969,0.05078 -0.160714,0.08888 -0.04233,0.0381 -0.07392,0.08384 -0.09508,0.137459 -0.02117,0.05221 -0.03204,0.110133 -0.03204,0.173633 0,0.0889 0.01992,0.160974 0.05943,0.216007 0.04092,0.05362 0.0995,0.09739 0.1757,0.131258 0.04939,0.02258 0.103514,0.04132 0.162781,0.05684 0.06068,0.01411 0.134719,0.0314 0.222208,0.05116 0.04375,0.0099 0.07978,0.02089 0.108004,0.03359 0.02822,0.01129 0.05011,0.02479 0.06563,0.04031 0.01693,0.01411 0.02846,0.02958 0.03411,0.04651 0.0071,0.01693 0.01033,0.03619 0.01033,0.05736 0,0.0635 -0.02385,0.112517 -0.07183,0.147795 -0.04657,0.03387 -0.113533,0.05116 -0.201022,0.05116 -0.09454,0 -0.170415,-0.02057 -0.226859,-0.06149 -0.05503,-0.04233 -0.08399,-0.0996 -0.08682,-0.171565 h -0.283187 c 0.0014,0.07902 0.01688,0.148472 0.04651,0.207739 0.02963,0.05785 0.07026,0.106216 0.122473,0.145727 0.05221,0.03951 0.114586,0.06847 0.186552,0.08682 0.07197,0.01976 0.151773,0.02945 0.239262,0.02945 0.08185,0 0.156543,-0.009 0.224276,-0.02739 0.06914,-0.01693 0.128378,-0.04341 0.177767,-0.0801 0.0508,-0.03669 0.08946,-0.08294 0.116272,-0.137976 0.02822,-0.05644 0.04237,-0.12341 0.04237,-0.201021 0,-0.04939 -0.0058,-0.0925 -0.01705,-0.129191 -0.01129,-0.03669 -0.02675,-0.06827 -0.04651,-0.09509 -0.01976,-0.02681 -0.04295,-0.04935 -0.06976,-0.0677 -0.02681,-0.01834 -0.05577,-0.03446 -0.08682,-0.04858 -0.05221,-0.02399 -0.114725,-0.04522 -0.188102,-0.06356 -0.07197,-0.01975 -0.148494,-0.03967 -0.228927,-0.05943 -0.07902,-0.01976 -0.135632,-0.04295 -0.169499,-0.06976 -0.03245,-0.02681 -0.04857,-0.06285 -0.04857,-0.108004 0,-0.05362 0.02123,-0.09425 0.06356,-0.122473 0.04233,-0.02822 0.105363,-0.04237 0.188619,-0.04237 0.0889,0 0.155865,0.01743 0.201021,0.05271 0.04515,0.03528 0.07098,0.08875 0.07803,0.160713 h 0.27957 c -0.0028,-0.06773 -0.01763,-0.12959 -0.04444,-0.186035 -0.0254,-0.05644 -0.06209,-0.105322 -0.110071,-0.146244 -0.04657,-0.04092 -0.104488,-0.07251 -0.173633,-0.09509 -0.06914,-0.02258 -0.148294,-0.03411 -0.237194,-0.03411 z m 3.017386,0 c -0.1143,0 -0.214162,0.01992 -0.30024,0.05943 -0.08608,0.0381 -0.158152,0.09091 -0.216007,0.158646 -0.05786,0.06773 -0.101625,0.14754 -0.131258,0.239262 -0.02963,0.09031 -0.04444,0.186894 -0.04444,0.289905 0,0.09737 0.01481,0.191981 0.04444,0.283704 0.02963,0.09031 0.07209,0.170773 0.127124,0.241328 0.05644,0.06915 0.12341,0.125099 0.201021,0.167432 0.07902,0.04092 0.167217,0.06098 0.264583,0.06098 0.09737,0 0.183077,-0.01612 0.257866,-0.04858 0.07479,-0.03387 0.129431,-0.08026 0.163297,-0.139526 l 0.0062,0.139526 h 0.243396 v -0.755509 h -0.586011 v 0.235128 h 0.311092 c 0,0.04374 -0.0096,0.08503 -0.02791,0.12454 -0.01693,0.0381 -0.04079,0.07217 -0.07183,0.101803 -0.03104,0.02963 -0.06774,0.05283 -0.11007,0.06976 -0.04092,0.01693 -0.08535,0.02532 -0.133326,0.02532 -0.06773,0 -0.126311,-0.01481 -0.175699,-0.04444 -0.04939,-0.02963 -0.09002,-0.06764 -0.122474,-0.114204 -0.03104,-0.04798 -0.05476,-0.100792 -0.07028,-0.158647 -0.01411,-0.05927 -0.02119,-0.117844 -0.02119,-0.1757 0,-0.167922 0.03538,-0.29595 0.105937,-0.383439 0.07197,-0.0889 0.167237,-0.133325 0.28577,-0.133325 0.03951,0 0.07752,0.0064 0.114205,0.01912 0.0381,0.0127 0.07151,0.02999 0.09974,0.05116 0.02822,0.02117 0.05142,0.04633 0.06976,0.07596 0.01834,0.02822 0.02987,0.05849 0.03411,0.09095 h 0.296105 c -0.0056,-0.07056 -0.02556,-0.134898 -0.05943,-0.192754 -0.03246,-0.05927 -0.07623,-0.109595 -0.131259,-0.151928 -0.05362,-0.04233 -0.116791,-0.07575 -0.190169,-0.09974 -0.07197,-0.02399 -0.149805,-0.03617 -0.233061,-0.03617 z m -32.737019,0.04651 v 1.405599 h 0.294555 v -0.592728 h 0.61805 v -0.24753 h -0.61805 v -0.319361 h 0.706934 v -0.24598 z m 1.598868,0 -0.501778,1.405599 h 0.311092 l 0.09974,-0.289904 h 0.518315 l 0.08888,0.289904 h 0.319877 L 23.41976,83.415098 Z m 2.540931,0 v 0.24598 h 0.42323 v 1.159619 h 0.294555 v -1.159619 h 0.425297 v -0.24598 z m 1.615405,0 -0.501262,1.405599 h 0.311093 l 0.09922,-0.289904 h 0.518832 l 0.08888,0.289904 h 0.319361 L 27.57661,83.415098 Z m 1.211295,0 v 1.405599 h 0.294556 v -0.510046 h 0.325562 c 0.06914,0 0.131518,-0.01036 0.186552,-0.03152 0.05503,-0.02258 0.102082,-0.05285 0.141593,-0.09095 0.03951,-0.03951 0.0703,-0.08642 0.09147,-0.140043 0.02117,-0.05503 0.03152,-0.114267 0.03152,-0.177767 0,-0.0635 -0.01036,-0.122734 -0.03152,-0.177767 -0.02117,-0.05503 -0.05196,-0.102738 -0.09147,-0.143661 -0.03951,-0.04233 -0.08656,-0.07509 -0.141593,-0.09767 -0.05503,-0.02399 -0.117408,-0.03617 -0.186552,-0.03617 z m 1.440223,0 v 1.405599 h 0.294039 v -1.405599 z m 3.771862,0 v 1.405599 h 0.285771 v -0.550354 h 0.313159 c 0.08467,0 0.142589,0.01481 0.173633,0.04444 0.03105,0.02822 0.04651,0.07644 0.04651,0.144177 v 0.361735 h 0.287838 v -0.397908 c 0,-0.08185 -0.0135,-0.143046 -0.04031,-0.183968 -0.0254,-0.04092 -0.06917,-0.0712 -0.131258,-0.09095 0.06773,-0.02399 0.119235,-0.06513 0.154512,-0.12299 0.03669,-0.05927 0.05529,-0.126888 0.05529,-0.203088 0,-0.05786 -0.01087,-0.111325 -0.03204,-0.160714 -0.01976,-0.0508 -0.04872,-0.09391 -0.08682,-0.129191 -0.0381,-0.03669 -0.08384,-0.06499 -0.137459,-0.08475 -0.05221,-0.02117 -0.110789,-0.03204 -0.1757,-0.03204 z m 1.532723,0 v 1.405599 h 1.067119 V 84.5711 h -0.781348 v -0.362252 h 0.687813 v -0.24753 h -0.687813 v -0.30024 h 0.747241 v -0.24598 z m 1.894975,0 -0.501778,1.405599 h 0.311609 l 0.09922,-0.289904 h 0.518831 l 0.08888,0.289904 h 0.319361 l -0.49506,-1.405599 z m 2.579171,0 v 0.24598 h 0.42323 v 1.159619 h 0.294556 v -1.159619 h 0.425297 v -0.24598 z m 2.594157,0 v 0.999423 c 0,0.07761 -0.01153,0.133048 -0.03411,0.166915 -0.02117,0.03245 -0.06559,0.04909 -0.133325,0.04909 -0.06068,0 -0.103791,-0.01729 -0.129191,-0.05116 -0.0254,-0.03528 -0.03772,-0.08875 -0.03772,-0.160713 v -0.129191 h -0.26665 v 0.144177 c 0,0.145344 0.038,0.254767 0.114205,0.328145 0.0762,0.07197 0.182482,0.107487 0.31936,0.107487 0.1524,0 0.267588,-0.03866 0.345199,-0.116272 0.07761,-0.07902 0.116272,-0.182681 0.116272,-0.311092 v -1.026811 z m 5.277197,0 v 1.405599 h 0.294556 v -0.510046 h 0.325561 c 0.06915,0 0.131519,-0.01036 0.186552,-0.03152 0.05503,-0.02258 0.102082,-0.05285 0.141594,-0.09095 0.03951,-0.03951 0.06978,-0.08642 0.09095,-0.140043 0.02117,-0.05503 0.03204,-0.114267 0.03204,-0.177767 0,-0.0635 -0.01087,-0.122734 -0.03204,-0.177767 -0.02117,-0.05503 -0.05144,-0.102738 -0.09095,-0.143661 -0.03951,-0.04233 -0.08656,-0.07509 -0.141594,-0.09767 -0.05503,-0.02399 -0.117407,-0.03617 -0.186552,-0.03617 z m 4.54856,0 v 0.24598 h 0.42323 v 1.159619 h 0.294039 v -1.159619 h 0.425297 v -0.24598 z m 3.15898,0 v 1.405599 h 0.285771 v -0.550354 h 0.313159 c 0.08467,0 0.142588,0.01481 0.173633,0.04444 0.03104,0.02822 0.04651,0.07644 0.04651,0.144177 v 0.361735 h 0.287838 v -0.397908 c 0,-0.08185 -0.0135,-0.143046 -0.04031,-0.183968 -0.0254,-0.04092 -0.06917,-0.0712 -0.131259,-0.09095 0.06773,-0.02399 0.119235,-0.06513 0.154513,-0.12299 0.03669,-0.05927 0.05529,-0.126888 0.05529,-0.203088 0,-0.05786 -0.01087,-0.111325 -0.03204,-0.160714 -0.01975,-0.0508 -0.04872,-0.09391 -0.08682,-0.129191 -0.0381,-0.03669 -0.08384,-0.06499 -0.137459,-0.08475 -0.05221,-0.02117 -0.110789,-0.03204 -0.1757,-0.03204 z m 1.532723,0 v 1.405599 h 1.067118 V 84.5711 h -0.781347 v -0.362252 h 0.68833 v -0.24753 h -0.68833 v -0.30024 h 0.747241 v -0.24598 z m -24.962301,0.182418 v 0.397909 h -0.397908 v 0.198954 h 0.397908 v 0.399976 h 0.198955 v -0.399976 h 0.399975 V 83.99539 h -0.399975 v -0.397909 z m 13.87874,0 v 0.397909 h -0.397909 v 0.198954 h 0.397909 v 0.399976 h 0.198954 v -0.399976 h 0.399976 V 83.99539 h -0.399976 v -0.397909 z m 3.941361,0.03152 c 0.124178,0 0.218793,0.04311 0.283704,0.129191 0.06491,0.08608 0.09767,0.212277 0.09767,0.378788 0,0.08326 -0.01022,0.15533 -0.02997,0.216008 -0.01976,0.06068 -0.04689,0.110867 -0.08217,0.150378 -0.03387,0.0381 -0.07436,0.06706 -0.120922,0.08682 -0.04657,0.01834 -0.0961,0.02739 -0.148312,0.02739 -0.122767,0 -0.218037,-0.038 -0.28577,-0.114205 -0.06632,-0.07761 -0.09922,-0.199875 -0.09922,-0.366386 0,-0.166511 0.0329,-0.29271 0.09922,-0.378788 0.06632,-0.08608 0.161592,-0.129191 0.28577,-0.129191 z m -20.893815,0.02997 h 0.279053 c 0.08467,0 0.145729,0.01874 0.182418,0.05684 0.0381,0.0381 0.05684,0.08698 0.05684,0.146245 0,0.06209 -0.01874,0.112934 -0.05684,0.152445 -0.03669,0.0381 -0.09775,0.05684 -0.182418,0.05684 h -0.279053 z m 5.2033,0 h 0.378788 c 0.07338,0 0.125535,0.01743 0.15658,0.05271 0.03245,0.03528 0.04858,0.08036 0.04858,0.135392 0,0.05362 -0.01612,0.09805 -0.04858,0.133326 -0.03246,0.03528 -0.08841,0.05323 -0.167432,0.05323 h -0.367936 z m 13.887008,0 h 0.279052 c 0.08467,0 0.145729,0.01874 0.182418,0.05684 0.0381,0.0381 0.05684,0.08698 0.05684,0.146245 0,0.06209 -0.01874,0.112934 -0.05684,0.152445 -0.03669,0.0381 -0.09775,0.05684 -0.182418,0.05684 h -0.279052 z m 7.698755,0 h 0.378788 c 0.07338,0 0.125535,0.01743 0.156579,0.05271 0.03246,0.03528 0.04858,0.08036 0.04858,0.135392 0,0.05362 -0.01612,0.09805 -0.04858,0.133326 -0.03246,0.03528 -0.08789,0.05323 -0.166914,0.05323 h -0.368453 z m -32.286402,0.07183 h 0.0021 l 0.1757,0.558623 h -0.357601 z m 4.156852,0 h 0.0021 l 0.175699,0.558623 h -0.357601 z m 9.851079,0 h 0.0021 l 0.1757,0.558623 h -0.357601 z m 3.758427,0.804086 v 0.28577 h 0.294555 v -0.28577 z" />
  </g>
</svg>
